<svg width="18.316650" height="16.283447" viewBox="0 0 18.3167 16.2834" fill="none" xmlns="http://www.w3.org/2000/svg" xmlns:xlink="http://www.w3.org/1999/xlink">
	<desc>
			Created with Pixso.
	</desc>
	<defs/>
	<path id="path" d="M12.71 0C12.06 0 11.43 0.11 10.82 0.35C10.21 0.58 9.66 0.91 9.15 1.34C8.65 0.91 8.09 0.58 7.49 0.35C6.88 0.11 6.25 0 5.59 0C4.57 0 3.63 0.26 2.77 0.78C1.92 1.3 1.25 2 0.75 2.88C0.25 3.76 0 4.71 0 5.74C0 6.64 0.31 7.66 0.95 8.8C1.58 9.95 2.4 11.07 3.41 12.18C4.47 13.34 5.54 14.31 6.64 15.1C7.73 15.88 8.56 16.28 9.14 16.28C9.79 16.28 10.64 15.91 11.7 15.17C12.76 14.43 13.81 13.5 14.84 12.38C15.86 11.25 16.7 10.09 17.35 8.9C17.99 7.73 18.31 6.67 18.31 5.74C18.31 4.71 18.06 3.76 17.56 2.88C17.06 2 16.39 1.3 15.54 0.78C14.68 0.26 13.74 0 12.71 0Z" fill="#FFFFFF" fill-opacity="0.600000" fill-rule="nonzero"/>
</svg>
