<svg width="27.500000" height="26.000000" viewBox="0 0 27.5 26" fill="none" xmlns="http://www.w3.org/2000/svg" xmlns:xlink="http://www.w3.org/1999/xlink">
	<desc>
			Created with Pixso.
	</desc>
	<defs/>
	<path id="路径 5" d="M8.45 14.37L12 17.92L15.54 14.37L8.45 14.37Z" fill="#FFFFFF" fill-opacity="0.858824" fill-rule="evenodd"/>
	<path id="路径 4" d="M12.5 5.23L12.5 17L11.5 17L11.5 5.23L12.5 5.23ZM11.52 5.25L11.5 5.23C11.5 4.95 11.72 4.73 12 4.73C12.28 4.73 12.5 4.95 12.5 5.23L12.48 5.25L11.52 5.25ZM12.48 16.98L12.5 17C12.5 17.27 12.28 17.5 12 17.5C11.72 17.5 11.5 17.27 11.5 17L11.52 16.98L12.48 16.98Z" fill="#FFFFFF" fill-opacity="0.860000" fill-rule="evenodd"/>
	<path id="路径" d="M21.5 11.5L21.5 20C21.5 20.47 21.4 20.92 21.22 21.36C21.04 21.78 20.79 22.15 20.47 22.47C20.15 22.79 19.78 23.04 19.36 23.22C18.92 23.4 18.47 23.5 18 23.5L6 23.5C5.52 23.5 5.07 23.4 4.63 23.22C4.21 23.04 3.84 22.79 3.52 22.47C3.2 22.15 2.95 21.78 2.77 21.36C2.59 20.92 2.5 20.47 2.5 20L2.5 8C2.5 7.52 2.59 7.07 2.77 6.63C2.95 6.21 3.2 5.84 3.52 5.52C3.84 5.2 4.21 4.95 4.63 4.77C5.07 4.59 5.52 4.5 6 4.5L8.78 4.5L8.78 5.5L6 5.5C5.66 5.5 5.33 5.56 5.02 5.69C4.72 5.82 4.46 6 4.23 6.23C4 6.46 3.82 6.72 3.69 7.02C3.56 7.33 3.5 7.66 3.5 8L3.5 20C3.5 20.33 3.56 20.66 3.69 20.97C3.82 21.27 4 21.53 4.23 21.76C4.46 21.99 4.72 22.17 5.02 22.3C5.33 22.43 5.66 22.5 6 22.5L18 22.5C18.33 22.5 18.66 22.43 18.97 22.3C19.27 22.17 19.53 21.99 19.76 21.76C19.99 21.53 20.17 21.27 20.3 20.97C20.43 20.66 20.5 20.33 20.5 20L20.5 11.5L21.5 11.5Z" fill="#FFFFFF" fill-opacity="0.860000" fill-rule="evenodd"/>
	<path id="VIP" d="M19.09 2.2L17.36 6.8L15.51 2.2L14.55 2.2L16.99 8.06L17.64 8.06L19.98 2.2L19.09 2.2ZM20.82 2.2L20.82 8.06L21.67 8.06L21.67 2.2L20.82 2.2ZM26.97 4.82Q27.13 4.48 27.13 4.06Q27.13 3.64 26.97 3.3Q26.92 3.19 26.86 3.09Q26.79 2.98 26.7 2.88Q26.46 2.61 26.1 2.44Q25.62 2.2 24.99 2.2L23.12 2.2L23.12 8.06L23.98 8.06L23.98 5.91L24.99 5.91Q25.62 5.91 26.11 5.67Q26.47 5.5 26.71 5.22Q26.79 5.13 26.86 5.02Q26.92 4.93 26.97 4.82ZM25.86 4.86Q25.51 5.16 24.88 5.16L23.98 5.16L23.98 2.95L24.88 2.95Q25.51 2.95 25.86 3.25Q25.99 3.37 26.07 3.51Q26.21 3.74 26.21 4.06Q26.21 4.38 26.07 4.61Q25.99 4.75 25.86 4.86Z" fill="#FFFFFF" fill-opacity="0.860000" fill-rule="evenodd"/>
</svg>
