<svg width="21.500244" height="19.500000" viewBox="0 0 21.5002 19.5" fill="none" xmlns="http://www.w3.org/2000/svg" xmlns:xlink="http://www.w3.org/1999/xlink">
	<desc>
			Created with Pixso.
	</desc>
	<defs/>
	<path id="路径" d="M11.25 1.74C11.5 1.97 11.56 2.32 11.43 2.6L20.06 6.41C20.17 6.15 20.43 5.97 20.74 5.97C21.16 5.96 21.49 6.29 21.5 6.71L21.48 6.73L20.75 6.74C20.75 8.29 20.2 9.92 19.16 11.35C18.52 12.22 17.55 13.3 16.3 14.54L16.26 14.58C15.65 15.18 14.59 16.13 13.08 17.44L12.2 18.2C11.36 18.93 10.13 18.93 9.29 18.2C7.24 16.42 5.86 15.19 5.14 14.49L4.94 14.29C3.81 13.16 2.93 12.16 2.33 11.35C0.25 8.51 0.15 4.89 2.41 2.57C4.67 0.26 8.27 0.14 10.66 2.23C10.68 2.24 10.7 2.26 10.73 2.29L11.22 1.74L11.25 1.74Z" fill="#000000" fill-opacity="0" fill-rule="evenodd"/>
	<path id="路径" d="M10.74 2.3C10.71 2.27 10.68 2.24 10.66 2.23C8.27 0.14 4.67 0.26 2.41 2.57C0.15 4.89 0.25 8.51 2.33 11.35C2.93 12.16 3.81 13.16 4.94 14.29L5.14 14.49C5.86 15.19 7.24 16.42 9.29 18.2C10.13 18.93 11.36 18.93 12.2 18.2L13.08 17.44C14.59 16.13 15.65 15.18 16.26 14.58L16.3 14.54C17.55 13.3 18.52 12.22 19.16 11.35C20.21 9.91 20.75 8.28 20.75 6.72" stroke="#FFFFFF" stroke-opacity="1.000000" stroke-width="1.500000" stroke-linejoin="round" stroke-linecap="round"/>
</svg>
