<svg width="24.000000" height="24.000000" viewBox="0 0 24 24" fill="none" xmlns="http://www.w3.org/2000/svg" xmlns:xlink="http://www.w3.org/1999/xlink">
	<desc>
			Created with Pixso.
	</desc>
	<defs/>
	<mask id="mask28_10782" mask-type="alpha" maskUnits="userSpaceOnUse" x="4.500000" y="4.500000" width="15.000000" height="15.000000">
		<path id="形状结合" d="M6.25 8C7.21558 8 8 7.21558 8 6.25C8 5.28442 7.21558 4.5 6.25 4.5C5.28442 4.5 4.5 5.28442 4.5 6.25C4.5 7.21558 5.28442 8 6.25 8ZM17.75 8C18.7156 8 19.5 7.21558 19.5 6.25C19.5 5.28442 18.7156 4.5 17.75 4.5C16.7844 4.5 16 5.28442 16 6.25C16 7.21558 16.7844 8 17.75 8ZM6.25 19.5C7.21558 19.5 8 18.7156 8 17.75C8 16.7844 7.21558 16 6.25 16C5.28442 16 4.5 16.7844 4.5 17.75C4.5 18.7156 5.28442 19.5 6.25 19.5ZM19.5 17.75C19.5 18.7156 18.7156 19.5 17.75 19.5C16.7844 19.5 16 18.7156 16 17.75C16 16.7844 16.7844 16 17.75 16C18.7156 16 19.5 16.7844 19.5 17.75Z" clip-rule="evenodd" fill="#FFFFFF" fill-opacity="1.000000" fill-rule="evenodd"/>
	</mask>
	<path id="形状结合" d="M6.25 8C7.21558 8 8 7.21558 8 6.25C8 5.28442 7.21558 4.5 6.25 4.5C5.28442 4.5 4.5 5.28442 4.5 6.25C4.5 7.21558 5.28442 8 6.25 8ZM17.75 8C18.7156 8 19.5 7.21558 19.5 6.25C19.5 5.28442 18.7156 4.5 17.75 4.5C16.7844 4.5 16 5.28442 16 6.25C16 7.21558 16.7844 8 17.75 8ZM6.25 19.5C7.21558 19.5 8 18.7156 8 17.75C8 16.7844 7.21558 16 6.25 16C5.28442 16 4.5 16.7844 4.5 17.75C4.5 18.7156 5.28442 19.5 6.25 19.5ZM19.5 17.75C19.5 18.7156 18.7156 19.5 17.75 19.5C16.7844 19.5 16 18.7156 16 17.75C16 16.7844 16.7844 16 17.75 16C18.7156 16 19.5 16.7844 19.5 17.75Z" clip-rule="evenodd" fill="#FFFFFF" fill-opacity="1.000000" fill-rule="evenodd"/>
</svg>
