<svg width="24.000000" height="24.000000" viewBox="0 0 24 24" fill="none" xmlns="http://www.w3.org/2000/svg" xmlns:xlink="http://www.w3.org/1999/xlink">
	<desc>
			Created with Pixso.
	</desc>
	<defs/>
	<path id="形状结合" d="M17.7773 0.408691C14.4131 -0.615967 9.46484 0.0732422 4.39111 4.94458C-0.682861 9.81592 -0.360352 13.9299 0.505371 16.4534C1.37109 18.9771 5.5918 23.0332 12.4456 23.844C19.2996 24.6545 23.2844 22.3904 23.9226 15.1206C24.5608 7.85059 21.1414 1.43335 17.7773 0.408691ZM9.69995 15.0547L9.69995 9.65234C9.69995 8.51929 10.9263 7.81104 11.9077 8.3772L16.5898 11.0784C17.5718 11.6448 17.5718 13.0623 16.5898 13.6287L11.9077 16.3298C10.9263 16.896 9.69995 16.1877 9.69995 15.0547Z" clip-rule="evenodd" fill="#FF1949" fill-opacity="1.000000" fill-rule="evenodd"/>
</svg>
