<svg width="26.423584" height="24.000000" viewBox="0 0 26.4236 24" fill="none" xmlns="http://www.w3.org/2000/svg" xmlns:xlink="http://www.w3.org/1999/xlink">
	<desc>
			Created with Pixso.
	</desc>
	<defs/>
	<path id="Fill 1" d="M9.87 20.34C9.87 20.25 9.94 20.18 10.03 20.18C10.42 20.21 11.43 20.28 12 20.28C12.56 20.28 13.58 20.21 13.97 20.18C14.05 20.18 14.12 20.24 14.12 20.33C14.04 21.43 13.12 22.3 11.99 22.3C10.87 22.3 9.95 21.44 9.87 20.34Z" fill="#FFFFFF" fill-opacity="0.860000" fill-rule="evenodd"/>
	<path id="Stroke 3" d="M13.09 2.55L13.09 2.55C13.09 2.43 13.06 2.31 13.01 2.2C12.96 2.09 12.88 1.99 12.79 1.9C12.69 1.81 12.57 1.74 12.44 1.68C12.3 1.63 12.15 1.6 12 1.6C11.84 1.6 11.69 1.63 11.55 1.68C11.42 1.74 11.3 1.81 11.2 1.9C11.11 1.99 11.03 2.09 10.98 2.2C10.93 2.31 10.9 2.43 10.9 2.55C10.9 2.54 10.9 2.53 10.9 2.52C10.9 2.53 10.9 2.54 10.9 2.55L10.9 3.5L10.4 3.5L10.28 3.01C10.43 2.97 10.61 2.94 10.82 2.9C11.26 2.83 11.66 2.8 12.04 2.8C12.41 2.8 12.81 2.83 13.21 2.9C13.42 2.94 13.59 2.97 13.72 3.01L13.72 3.01L13.59 3.49L13.09 3.49L13.09 2.55ZM14.09 2.55L14.09 4.14L13.46 3.97L13.46 3.97C13.35 3.94 13.22 3.92 13.04 3.89C12.69 3.83 12.36 3.8 12.04 3.8C11.72 3.8 11.36 3.83 10.99 3.89C10.8 3.92 10.64 3.95 10.52 3.98L9.9 4.13L9.9 2.55C9.9 2.56 9.9 2.57 9.9 2.58C9.9 2.57 9.9 2.56 9.9 2.55C9.9 2.28 9.96 2.02 10.07 1.77C10.18 1.54 10.34 1.33 10.53 1.16C10.73 0.98 10.95 0.85 11.2 0.75C11.45 0.65 11.72 0.6 12 0.6C12.27 0.6 12.54 0.65 12.79 0.75C13.04 0.85 13.26 0.98 13.46 1.16C13.65 1.33 13.81 1.54 13.92 1.77C14.03 2.02 14.09 2.28 14.09 2.55L14.09 2.55Z" fill="#FFFFFF" fill-opacity="0.860000" fill-rule="evenodd"/>
	<path id="Stroke 5" d="M17.78 9.72C17.78 9.14 17.69 8.57 17.52 8.01C17.35 7.46 17.1 6.95 16.78 6.48C16.46 6.01 16.08 5.6 15.63 5.25C15.18 4.9 14.68 4.62 14.14 4.43C13.14 4.07 12.15 3.96 11.16 4.1C10.24 4.24 9.39 4.57 8.63 5.12C7.89 5.65 7.3 6.33 6.87 7.14C6.43 7.98 6.21 8.87 6.21 9.83L6.21 13.72C6.21 14.05 6.16 14.37 6.05 14.68C5.94 15 5.79 15.28 5.59 15.55L4.62 16.81C4.57 16.87 4.54 16.94 4.53 17C4.52 17.06 4.52 17.11 4.53 17.16C4.56 17.27 4.63 17.33 4.75 17.37C5.5 17.58 6.38 17.75 7.4 17.87C8.77 18.05 10.3 18.14 12 18.14C13.69 18.14 15.22 18.05 16.59 17.87C17.61 17.75 18.49 17.58 19.24 17.37C19.36 17.33 19.43 17.27 19.46 17.16C19.47 17.11 19.47 17.06 19.46 17C19.45 16.94 19.42 16.87 19.37 16.81L18.4 15.55C18.2 15.28 18.05 15 17.94 14.68C17.83 14.37 17.78 14.05 17.78 13.72L17.78 9.72ZM18.78 9.72L18.78 13.72C18.78 13.94 18.82 14.15 18.89 14.36C18.96 14.57 19.06 14.76 19.19 14.94L20.17 16.2C20.31 16.39 20.4 16.59 20.44 16.8C20.49 17.02 20.48 17.23 20.42 17.44C20.36 17.65 20.25 17.83 20.1 17.99C19.94 18.15 19.74 18.27 19.51 18.33C18.71 18.55 17.78 18.73 16.72 18.87C15.31 19.05 13.73 19.14 12 19.14C10.26 19.14 8.68 19.05 7.27 18.87C6.21 18.73 5.28 18.55 4.48 18.33C4.25 18.27 4.05 18.15 3.89 17.99C3.74 17.83 3.63 17.65 3.57 17.44C3.51 17.23 3.5 17.02 3.55 16.8C3.59 16.59 3.68 16.39 3.82 16.2L4.8 14.94C4.93 14.76 5.03 14.57 5.1 14.36C5.17 14.15 5.21 13.94 5.21 13.72L5.21 9.83C5.21 8.71 5.47 7.66 5.99 6.67C6.23 6.2 6.53 5.77 6.88 5.37C7.23 4.97 7.62 4.61 8.05 4.31C8.49 3.99 8.95 3.74 9.45 3.54C9.95 3.33 10.48 3.19 11.02 3.11C12.17 2.95 13.32 3.07 14.47 3.48C15.12 3.72 15.71 4.04 16.25 4.47C16.78 4.88 17.23 5.36 17.61 5.92C17.99 6.47 18.28 7.07 18.48 7.71C18.68 8.37 18.78 9.04 18.78 9.72Z" fill="#FFFFFF" fill-opacity="0.860000" fill-rule="evenodd"/>
</svg>
