<svg width="24.431396" height="25.175049" viewBox="0 0 24.4314 25.175" fill="none" xmlns="http://www.w3.org/2000/svg" xmlns:xlink="http://www.w3.org/1999/xlink">
	<desc>
			Created with Pixso.
	</desc>
	<defs/>
	<rect id="矩形" x="2.000000" y="4.175049" rx="0.750000" width="10.000000" height="1.500000" fill="#FFFFFF" fill-opacity="0.858824"/>
	<rect id="矩形备份" x="2.000000" y="12.425049" rx="0.750000" width="20.000000" height="1.500000" fill="#FFFFFF" fill-opacity="0.858824"/>
	<rect id="矩形备份 2" x="2.000000" y="20.675049" rx="0.750000" width="20.000000" height="1.500000" fill="#FFFFFF" fill-opacity="0.858824"/>
	<path id="路径 10" d="M24.21 4.31Q24.01 3.67 23.67 3.38C23.45 3.2 23.14 3.23 22.96 3.45C22.78 3.66 22.81 3.97 23.03 4.15C23.1 4.21 23.18 4.36 23.25 4.59Q23.36 4.96 23.42 5.53Q23.44 5.75 23.4 5.96Q23.38 6.08 23.33 6.19Q23.31 6.25 23.28 6.32Q23.17 6.54 22.98 6.72C22.82 6.88 22.63 7 22.41 7.09C22.19 7.18 21.95 7.23 21.7 7.23L14.94 7.23L17.89 9.75L18.54 8.99L17.65 8.23L21.7 8.23Q22.02 8.23 22.33 8.16Q22.56 8.11 22.79 8.02Q23.13 7.88 23.41 7.66Q23.55 7.56 23.68 7.43Q23.95 7.17 24.12 6.86Q24.21 6.71 24.27 6.54Q24.35 6.32 24.39 6.09Q24.45 5.77 24.41 5.43Q24.35 4.77 24.21 4.31Z" fill="#FFFFFF" fill-opacity="0.860000" fill-rule="evenodd"/>
	<path id="路径 10备份" d="M13.96 5.44Q14.15 6.07 14.5 6.36C14.71 6.54 15.02 6.51 15.2 6.3C15.38 6.08 15.35 5.77 15.13 5.59C15.06 5.53 14.98 5.38 14.91 5.15Q14.8 4.78 14.74 4.21Q14.72 3.99 14.76 3.78Q14.79 3.67 14.83 3.56Q14.85 3.49 14.88 3.43Q15 3.21 15.18 3.02C15.34 2.86 15.53 2.74 15.75 2.65C15.98 2.56 16.21 2.52 16.46 2.52L23.22 2.52L20.27 0L19.62 0.76L20.51 1.52L16.46 1.52Q16.14 1.52 15.83 1.58Q15.6 1.63 15.37 1.73Q15.03 1.86 14.75 2.08Q14.61 2.18 14.48 2.31Q14.22 2.57 14.04 2.88Q13.96 3.03 13.89 3.2Q13.81 3.42 13.77 3.65Q13.71 3.97 13.75 4.31Q13.82 4.98 13.96 5.44Z" fill="#FFFFFF" fill-opacity="0.860000" fill-rule="evenodd"/>
</svg>
