<svg width="17.516663" height="17.957275" viewBox="0 0 17.5167 17.9573" fill="none" xmlns="http://www.w3.org/2000/svg" xmlns:xlink="http://www.w3.org/1999/xlink">
	<desc>
			Created with Pixso.
	</desc>
	<defs/>
	<path id="path" d="M7.27 9.92C7.07 9.81 6.87 9.78 6.66 9.82C6.46 9.86 6.28 9.96 6.14 10.12C6.01 10.28 5.94 10.47 5.94 10.7L5.94 17.06C5.94 17.28 6.01 17.48 6.14 17.64C6.28 17.8 6.46 17.9 6.66 17.94C6.87 17.98 7.07 17.94 7.27 17.84L12.8 14.66C13 14.55 13.13 14.39 13.2 14.18C13.26 13.97 13.26 13.76 13.2 13.55C13.13 13.34 13 13.18 12.8 13.08L7.27 9.92Z" fill="#FF1949" fill-opacity="1.000000" fill-rule="nonzero"/>
	<path id="path" d="M0.61 14.18C0.78 14.18 0.93 14.12 1.05 14C1.18 13.88 1.24 13.73 1.24 13.56L1.24 8.78C1.24 7.42 1.57 6.16 2.25 5.01C2.92 3.86 3.83 2.94 4.99 2.27C6.14 1.6 7.39 1.26 8.75 1.26C10.11 1.26 11.37 1.6 12.52 2.27C13.68 2.94 14.59 3.86 15.26 5.01C15.93 6.16 16.27 7.42 16.27 8.78L16.27 13.54C16.27 13.71 16.33 13.86 16.45 13.99C16.58 14.11 16.72 14.18 16.9 14.18C17.07 14.18 17.21 14.11 17.34 13.99C17.45 13.86 17.51 13.71 17.51 13.54L17.51 8.78C17.51 7.19 17.12 5.72 16.34 4.38C15.55 3.03 14.48 1.97 13.15 1.18C11.81 0.39 10.34 0 8.75 0C7.16 0 5.7 0.39 4.36 1.18C3.02 1.97 1.96 3.03 1.17 4.37C0.39 5.71 0 7.17 0 8.76L0 13.54C0 13.71 0.05 13.86 0.17 13.99C0.29 14.11 0.44 14.18 0.61 14.18Z" fill="#FF1949" fill-opacity="1.000000" fill-rule="nonzero"/>
</svg>
