<svg width="16.000000" height="16.000000" viewBox="0 0 16 16" fill="none" xmlns="http://www.w3.org/2000/svg" xmlns:xlink="http://www.w3.org/1999/xlink">
	<desc>
			Created with Pixso.
	</desc>
	<defs/>
	<mask id="mask8_26260" mask-type="alpha" maskUnits="userSpaceOnUse" x="0.000000" y="0.000000" width="16.000000" height="16.000000">
		<rect id="rect" width="16.000000" height="16.000000" fill="#FFFFFF" fill-opacity="1.000000"/>
		<path id="path" d="M6.56 5.48C6.69 5.54 6.79 5.63 6.84 5.76C6.89 5.88 6.89 6.01 6.84 6.14L5.2 10.22C5.15 10.32 5.08 10.39 4.98 10.45C4.88 10.51 4.77 10.54 4.67 10.54C4.57 10.54 4.48 10.51 4.39 10.45C4.31 10.39 4.25 10.32 4.2 10.22L2.57 6.14C2.53 6 2.53 5.87 2.59 5.75C2.64 5.62 2.73 5.54 2.84 5.48C2.98 5.44 3.11 5.45 3.23 5.5C3.36 5.56 3.45 5.64 3.5 5.76L4.71 8.76L5.91 5.76C5.96 5.63 6.05 5.54 6.18 5.48C6.32 5.43 6.44 5.43 6.56 5.48ZM8.2 5.45C8.34 5.45 8.46 5.5 8.56 5.6C8.65 5.69 8.7 5.81 8.7 5.95L8.7 10.03C8.7 10.17 8.65 10.28 8.56 10.38C8.46 10.48 8.34 10.52 8.2 10.52C8.06 10.52 7.95 10.48 7.85 10.38C7.76 10.28 7.71 10.17 7.71 10.03L7.71 5.95C7.71 5.81 7.76 5.69 7.85 5.6C7.95 5.5 8.06 5.45 8.2 5.45ZM11.56 5.45C11.9 5.45 12.22 5.53 12.51 5.68C12.8 5.84 13.03 6.05 13.2 6.32C13.36 6.59 13.45 6.88 13.45 7.2C13.45 7.52 13.36 7.81 13.2 8.08C13.03 8.34 12.8 8.55 12.51 8.71C12.22 8.86 11.9 8.94 11.56 8.94L10.83 8.94L10.83 10.03C10.83 10.17 10.78 10.28 10.68 10.38C10.59 10.48 10.47 10.52 10.33 10.52C10.19 10.52 10.08 10.48 9.98 10.38C9.88 10.28 9.83 10.17 9.83 10.03L9.83 5.95C9.83 5.81 9.88 5.69 9.98 5.6C10.08 5.5 10.19 5.45 10.33 5.45L11.56 5.45ZM11.56 7.93C11.81 7.93 12.02 7.86 12.19 7.72C12.36 7.57 12.44 7.4 12.44 7.2C12.44 6.99 12.36 6.82 12.18 6.68C12 6.53 11.8 6.46 11.56 6.46L10.83 6.46L10.83 7.93L11.56 7.93Z" fill="#000000" fill-opacity="1.000000" fill-rule="nonzero"/>
	</mask>
	<g mask="url(#mask8_26260)">
		<path id="path" d="M13.32 14C13.69 14 14.02 13.9 14.32 13.72C14.63 13.54 14.87 13.3 15.05 13C15.23 12.69 15.32 12.36 15.32 12L15.32 3.98C15.32 3.62 15.23 3.28 15.05 2.98C14.87 2.67 14.63 2.43 14.32 2.25C14.02 2.07 13.69 1.98 13.32 1.98L2.67 1.98C2.3 1.98 1.97 2.07 1.67 2.25C1.36 2.43 1.12 2.67 0.94 2.98C0.76 3.28 0.67 3.62 0.67 3.98L0.67 12C0.67 12.36 0.76 12.69 0.94 13C1.12 13.3 1.36 13.54 1.67 13.72C1.97 13.9 2.3 14 2.67 14L13.32 14Z" fill="#FF1949" fill-opacity="1.000000" fill-rule="nonzero"/>
	</g>
</svg>
